<svg width="24" height="24" viewBox="0 0 24 24" fill="none" xmlns="http://www.w3.org/2000/svg">
<g clip-path="url(#clip0_1_3598)">
<path d="M17.7389 6.79343H12.5215V4.09969C12.8973 3.98852 13.2273 3.75904 13.4623 3.44537C13.6972 3.1317 13.8248 2.75058 13.8258 2.35865C13.8258 1.87434 13.6335 1.40987 13.291 1.06741C12.9485 0.724953 12.4841 0.532562 11.9998 0.532562C11.5154 0.532562 11.051 0.724953 10.7085 1.06741C10.3661 1.40987 10.1737 1.87434 10.1737 2.35865C10.1747 2.75058 10.3023 3.1317 10.5373 3.44537C10.7723 3.75904 11.1022 3.98852 11.478 4.09969V6.79343H6.26062C5.43038 6.79343 4.63414 7.12325 4.04707 7.71032C3.46 8.29739 3.13019 9.09362 3.13019 9.92387V19.8369C3.13019 20.6672 3.46 21.4634 4.04707 22.0505C4.63414 22.6375 5.43038 22.9673 6.26062 22.9673H17.7389C18.5691 22.9673 19.3654 22.6375 19.9524 22.0505C20.5395 21.4634 20.8693 20.6672 20.8693 19.8369V9.92387C20.8693 9.09362 20.5395 8.29739 19.9524 7.71032C19.3654 7.12325 18.5691 6.79343 17.7389 6.79343ZM6.78236 12.7934C6.78236 12.3091 6.97475 11.8447 7.31721 11.5022C7.65967 11.1597 8.12414 10.9673 8.60845 10.9673C9.09276 10.9673 9.55723 11.1597 9.89969 11.5022C10.2421 11.8447 10.4345 12.3091 10.4345 12.7934C10.4345 13.2777 10.2421 13.7422 9.89969 14.0847C9.55723 14.4271 9.09276 14.6195 8.60845 14.6195C8.12414 14.6195 7.65967 14.4271 7.31721 14.0847C6.97475 13.7422 6.78236 13.2777 6.78236 12.7934ZM15.3686 18.506C14.3382 19.0355 13.1731 19.3152 11.9998 19.3152C10.8264 19.3152 9.66132 19.0355 8.63088 18.506C8.51234 18.4401 8.42404 18.3308 8.38464 18.2011C8.34525 18.0714 8.35785 17.9314 8.41978 17.8108C8.48171 17.6902 8.58812 17.5984 8.71651 17.5548C8.8449 17.5112 8.9852 17.5193 9.10775 17.5773C10.8999 18.4986 13.0996 18.4986 14.8918 17.5773C15.0138 17.5229 15.1521 17.5173 15.2782 17.5617C15.4043 17.6061 15.5085 17.6971 15.5696 17.816C15.6306 17.9349 15.6438 18.0727 15.6065 18.201C15.5691 18.3293 15.484 18.4384 15.3686 18.506ZM15.3911 14.6195C15.1513 14.6195 14.9138 14.5723 14.6922 14.4805C14.4707 14.3887 14.2694 14.2542 14.0998 14.0847C13.9303 13.9151 13.7957 13.7138 13.704 13.4922C13.6122 13.2707 13.565 13.0332 13.565 12.7934C13.565 12.5536 13.6122 12.3162 13.704 12.0946C13.7957 11.8731 13.9303 11.6718 14.0998 11.5022C14.2694 11.3326 14.4707 11.1981 14.6922 11.1063C14.9138 11.0146 15.1513 10.9673 15.3911 10.9673C15.8754 10.9673 16.3398 11.1597 16.6823 11.5022C17.0248 11.8447 17.2171 12.3091 17.2171 12.7934C17.2171 13.2777 17.0248 13.7422 16.6823 14.0847C16.3398 14.4271 15.8754 14.6195 15.3911 14.6195Z" fill="#A7ABB1"/>
<path d="M15.2499 13.4999C15.6641 13.4999 15.9999 13.1642 15.9999 12.7499C15.9999 12.3357 15.6641 11.9999 15.2499 11.9999C14.8357 11.9999 14.4999 12.3357 14.4999 12.7499C14.4999 13.1642 14.8357 13.4999 15.2499 13.4999Z" fill="#A7ABB1"/>
<path d="M8.74988 13.4999C9.16409 13.4999 9.49988 13.1642 9.49988 12.7499C9.49988 12.3357 9.16409 11.9999 8.74988 11.9999C8.33566 11.9999 7.99988 12.3357 7.99988 12.7499C7.99988 13.1642 8.33566 13.4999 8.74988 13.4999Z" fill="#A7ABB1"/>
<path d="M22.4348 11.4891H21.913V18.2717H22.4348C22.8499 18.2717 23.248 18.1068 23.5416 17.8132C23.8351 17.5197 24 17.1216 24 16.7065V13.0543C24 12.6392 23.8351 12.2411 23.5416 11.9475C23.248 11.654 22.8499 11.4891 22.4348 11.4891ZM2.08696 11.4891H1.56522C1.1501 11.4891 0.751977 11.654 0.458442 11.9475C0.164906 12.2411 0 12.6392 0 13.0543V16.7065C0 17.1216 0.164906 17.5197 0.458442 17.8132C0.751977 18.1068 1.1501 18.2717 1.56522 18.2717H2.08696V11.4891Z" fill="#A7ABB1"/>
</g>
<defs>
<clipPath id="clip0_1_3598">
<rect width="24" height="24" fill="white"/>
</clipPath>
</defs>
</svg>
