<svg width="24" height="24" viewBox="0 0 24 24" fill="none" xmlns="http://www.w3.org/2000/svg">
<g clip-path="url(#clip0_1_3589)">
<path d="M15.334 1.27799C10.5919 -0.418997 5.40809 -0.418997 0.666 1.27799C0.471126 1.34704 0.302446 1.4748 0.183176 1.64367C0.0639067 1.81255 -8.81677e-05 2.01424 9.11691e-08 2.22099V12C9.11691e-08 14.1217 0.842855 16.1566 2.34315 17.6568C3.84344 19.1571 5.87827 20 8 20C10.1217 20 12.1566 19.1571 13.6569 17.6568C15.1571 16.1566 16 14.1217 16 12V2.22099C16.0001 2.01424 15.9361 1.81255 15.8168 1.64367C15.6976 1.4748 15.5289 1.34704 15.334 1.27799ZM3 7.99999C3 7.73477 3.10536 7.48042 3.29289 7.29288C3.48043 7.10535 3.73478 6.99999 4 6.99999H5C5.26522 6.99999 5.51957 7.10535 5.70711 7.29288C5.89464 7.48042 6 7.73477 6 7.99999C6 8.2652 5.89464 8.51956 5.70711 8.70709C5.51957 8.89463 5.26522 8.99999 5 8.99999H4C3.73478 8.99999 3.48043 8.89463 3.29289 8.70709C3.10536 8.51956 3 8.2652 3 7.99999ZM8 17C7.20435 17 6.44129 16.6839 5.87868 16.1213C5.31607 15.5587 5 14.7956 5 14H11C11 14.7956 10.6839 15.5587 10.1213 16.1213C9.55871 16.6839 8.79565 17 8 17ZM12 8.99999H11C10.7348 8.99999 10.4804 8.89463 10.2929 8.70709C10.1054 8.51956 10 8.2652 10 7.99999C10 7.73477 10.1054 7.48042 10.2929 7.29288C10.4804 7.10535 10.7348 6.99999 11 6.99999H12C12.2652 6.99999 12.5196 7.10535 12.7071 7.29288C12.8946 7.48042 13 7.73477 13 7.99999C13 8.2652 12.8946 8.51956 12.7071 8.70709C12.5196 8.89463 12.2652 8.99999 12 8.99999Z" fill="#A7ABB1"/>
<path d="M23.334 5.27298C21.6114 4.66267 19.8197 4.26866 18 4.09998V12C18 11.7348 18.1053 11.4804 18.2929 11.2929C18.4804 11.1053 18.7348 11 19 11H20C20.2652 11 20.5196 11.1053 20.7071 11.2929C20.8946 11.4804 21 11.7348 21 12C21 12.2652 20.8946 12.5195 20.7071 12.7071C20.5196 12.8946 20.2652 13 20 13H19C18.7348 13 18.4804 12.8946 18.2929 12.7071C18.1053 12.5195 18 12.2652 18 12C17.9999 14.1662 17.292 16.2732 15.984 18H16C16.7956 18 17.5587 18.316 18.1213 18.8787C18.6839 19.4413 19 20.2043 19 21H15H12.276C11.6757 21.2964 11.0468 21.531 10.399 21.7C11.522 22.8057 12.9468 23.5548 14.4943 23.8531C16.0418 24.1513 17.6429 23.9855 19.0964 23.3763C20.5499 22.7672 21.7909 21.7419 22.6634 20.4295C23.5359 19.117 24.0009 17.576 24 16V6.21498C23.9999 6.0084 23.9358 5.80693 23.8165 5.63825C23.6973 5.46958 23.5287 5.34197 23.334 5.27298Z" fill="#A7ABB1"/>
</g>
<defs>
<clipPath id="clip0_1_3589">
<rect width="24" height="24" fill="white"/>
</clipPath>
</defs>
</svg>
