<svg width="24" height="24" viewBox="0 0 24 24" fill="none" xmlns="http://www.w3.org/2000/svg">
<g clip-path="url(#clip0_1_3608)">
<path d="M7.60933 19.8333C7.73467 19.8573 7.864 19.8666 8.12267 19.8853C8.66 19.9533 9.172 19.5733 9.24533 19.0253C9.31867 18.4773 8.93333 17.9746 8.38533 17.9026C8.296 17.8906 8.204 17.884 8.11333 17.8786C8.06667 17.876 8.02133 17.876 7.97867 17.868C7.172 17.7146 6.39467 17.4253 5.67333 17.008C5.348 16.82 4.944 16.832 4.62933 17.036C4.26533 17.2733 3.612 17.548 2.90267 17.744C3.34667 16.5613 3.468 15.2266 2.98533 14.32C2.34133 13.2053 2.00133 11.94 2.00133 10.664C2 6.62129 5.28933 3.33329 9.33067 3.33329C11.908 3.33329 14.2493 4.65729 15.5947 6.87463C15.8813 7.34529 16.4947 7.49596 16.968 7.21063C17.44 6.92396 17.592 6.30929 17.3053 5.83729C15.5933 3.01729 12.612 1.33463 9.33067 1.33463C4.18667 1.33329 0 5.51863 0 10.664C0 12.292 0.433333 13.9013 1.236 15.2906C1.45867 15.7093 1.14933 17.4306 0.293333 18.288C0.0146667 18.5666 -0.0746667 18.984 0.0666667 19.352C0.206667 19.72 0.552 19.972 0.945333 19.9933C1.04267 19.9986 1.14 20.0013 1.24133 20.0013C2.564 20.0013 4.124 19.552 5.18533 19.0173C5.95467 19.4013 6.768 19.676 7.60933 19.8346V19.8333Z" fill="#A7ABB1"/>
<path d="M23.0601 19.156C23.6747 18.0934 24.0001 16.884 24.0001 15.6614C24.0001 11.8014 20.8601 8.66138 17.0001 8.66138C13.1401 8.66138 9.99872 11.8014 9.99872 15.6614C9.99872 19.5214 13.1387 22.6614 17.0001 22.6614C17.4334 22.6614 17.8681 22.6214 18.2934 22.54C18.8774 22.4294 19.4454 22.244 19.9867 21.988C20.7827 22.3627 21.8867 22.6654 22.8334 22.6654C22.9094 22.6654 22.9827 22.664 23.0547 22.66C23.4494 22.6387 23.7947 22.3867 23.9347 22.0187C24.0761 21.6507 23.9867 21.2334 23.7081 20.9547C23.2067 20.4534 22.9774 19.3974 23.0601 19.156Z" fill="#A7ABB1"/>
</g>
<defs>
<clipPath id="clip0_1_3608">
<rect width="24" height="24" fill="white"/>
</clipPath>
</defs>
</svg>
