<svg width="19" height="19" viewBox="0 0 19 19" fill="none" xmlns="http://www.w3.org/2000/svg">
<path d="M9.50022 0.804901C4.59911 0.804901 0.611328 4.79268 0.611328 9.69379C0.611328 11.2449 1.02355 12.7782 1.79133 14.106C2.05577 14.6016 1.68577 16.3305 0.855773 17.1605C0.62355 17.3927 0.549106 17.7405 0.666884 18.0471C0.784661 18.3538 1.07244 18.5638 1.40022 18.5816C1.48799 18.586 1.57799 18.5882 1.66799 18.5882C2.94022 18.5882 4.48466 18.136 5.49022 17.6205C6.24022 18.0016 7.03466 18.2727 7.858 18.4293C8.39577 18.5316 8.94911 18.5827 9.50022 18.5827C14.4013 18.5827 18.3891 14.5949 18.3891 9.69379C18.3891 4.79268 14.4013 0.804901 9.50022 0.804901ZM5.61133 10.8049C4.99799 10.8049 4.50022 10.306 4.50022 9.69379C4.50022 9.08157 4.99799 8.58268 5.61133 8.58268C6.22466 8.58268 6.72244 9.08157 6.72244 9.69379C6.72244 10.306 6.22466 10.8049 5.61133 10.8049ZM9.50022 10.8049C8.88688 10.8049 8.38911 10.306 8.38911 9.69379C8.38911 9.08157 8.88688 8.58268 9.50022 8.58268C10.1136 8.58268 10.6113 9.08157 10.6113 9.69379C10.6113 10.306 10.1136 10.8049 9.50022 10.8049ZM13.3891 10.8049C12.7758 10.8049 12.278 10.306 12.278 9.69379C12.278 9.08157 12.7758 8.58268 13.3891 8.58268C14.0024 8.58268 14.5002 9.08157 14.5002 9.69379C14.5002 10.306 14.0024 10.8049 13.3891 10.8049Z" fill="white"/>
</svg>
