<svg width="10" height="10" viewBox="0 0 10 10" fill="none" xmlns="http://www.w3.org/2000/svg">
<path d="M5.84601 5L9.62601 1.226C9.73899 1.11302 9.80247 0.95978 9.80247 0.799999C9.80247 0.640218 9.73899 0.486981 9.62601 0.373999C9.51303 0.261017 9.35979 0.197544 9.20001 0.197544C9.04023 0.197544 8.88699 0.261017 8.77401 0.373999L5.00001 4.154L1.22601 0.373999C1.11303 0.261017 0.959793 0.197544 0.800012 0.197544C0.640231 0.197544 0.486994 0.261017 0.374012 0.373999C0.26103 0.486981 0.197557 0.640218 0.197557 0.799999C0.197557 0.95978 0.26103 1.11302 0.374012 1.226L4.15401 5L0.374012 8.774C0.317775 8.82978 0.273139 8.89614 0.242677 8.96925C0.212216 9.04237 0.196533 9.12079 0.196533 9.2C0.196533 9.27921 0.212216 9.35763 0.242677 9.43074C0.273139 9.50386 0.317775 9.57022 0.374012 9.626C0.42979 9.68223 0.496151 9.72687 0.569266 9.75733C0.642382 9.78779 0.720805 9.80348 0.800012 9.80348C0.879219 9.80348 0.957643 9.78779 1.03076 9.75733C1.10387 9.72687 1.17023 9.68223 1.22601 9.626L5.00001 5.846L8.77401 9.626C8.82979 9.68223 8.89615 9.72687 8.96927 9.75733C9.04238 9.78779 9.1208 9.80348 9.20001 9.80348C9.27922 9.80348 9.35764 9.78779 9.43076 9.75733C9.50387 9.72687 9.57023 9.68223 9.62601 9.626C9.68225 9.57022 9.72689 9.50386 9.75735 9.43074C9.78781 9.35763 9.80349 9.27921 9.80349 9.2C9.80349 9.12079 9.78781 9.04237 9.75735 8.96925C9.72689 8.89614 9.68225 8.82978 9.62601 8.774L5.84601 5Z" fill="white"/>
</svg>
