<svg width="24" height="24" viewBox="0 0 24 24" fill="none" xmlns="http://www.w3.org/2000/svg">
<g clip-path="url(#clip0_1_3579)">
<path d="M23.2501 11.25C23.0799 11.25 22.9141 11.1923 22.7814 11.0858L12.0001 2.46001L1.21886 11.0858C0.895612 11.3445 0.423112 11.292 0.164362 10.9688C-0.0943876 10.6455 -0.0418876 10.173 0.281362 9.91426L11.5314 0.914263C11.8051 0.694513 12.1951 0.694513 12.4689 0.914263L23.7189 9.91426C24.0421 10.173 24.0946 10.6448 23.8359 10.9688C23.6934 11.1465 23.4781 11.2508 23.2501 11.25Z" fill="#F7F7F7"/>
<path d="M12 4.38147L3 11.5815V21.375C3 22.4107 3.83925 23.25 4.875 23.25H9.75V18C9.75 17.586 10.086 17.25 10.5 17.25H13.5C13.914 17.25 14.25 17.586 14.25 18V23.25H19.125C20.1607 23.25 21 22.4107 21 21.375V11.5815L12 4.38147Z" fill="#F7F7F7"/>
</g>
<defs>
<clipPath id="clip0_1_3579">
<rect width="24" height="24" fill="white"/>
</clipPath>
</defs>
</svg>
