<svg width="272" height="100" viewBox="0 0 272 100" fill="none" xmlns="http://www.w3.org/2000/svg">
<g clip-path="url(#clip0_1_998)">
<path d="M125.915 88.3028C127.712 88.3028 129.31 87.0243 129.651 85.1936C130.035 83.128 128.672 81.1419 126.607 80.7576C114.517 78.5086 104.375 70.4433 99.4778 59.1831C94.8968 48.6513 95.4344 36.8235 100.952 26.7328C101.96 24.8893 101.283 22.5777 99.4396 21.5696C97.5961 20.5612 95.2845 21.2388 94.2764 23.0823C87.623 35.2505 86.9755 49.5146 92.5005 62.2176C98.4073 75.7989 110.637 85.5262 125.216 88.2381C125.45 88.2817 125.684 88.3028 125.915 88.3028Z" fill="white"/>
<path d="M90.0982 52.8784C92.9349 52.8784 95.0379 52.4293 95.2683 52.3783C95.6434 52.2934 95.9811 52.0895 96.2309 51.7971C96.4808 51.5047 96.6295 51.1394 96.6548 50.7557C96.6612 50.6508 96.8076 48.1653 96.2603 45.0819C95.512 40.8656 93.8049 37.5158 91.3229 35.3954C88.8412 33.2748 85.2665 32.1108 80.9847 32.0297C80.8177 32.0265 80.6529 32.025 80.4905 32.0252C77.6522 32.0252 75.5492 32.4741 75.3185 32.5253C74.9435 32.6102 74.6059 32.8141 74.356 33.1065C74.1062 33.3989 73.9576 33.7642 73.9322 34.1479C73.9258 34.2528 73.7795 36.7383 74.3266 39.8219C75.0746 44.0382 76.7822 47.3878 79.2641 49.5086C81.7456 51.629 85.3206 52.793 89.6021 52.8741C89.7703 52.877 89.9356 52.8784 90.0982 52.8784ZM114.461 99.9995C117.798 99.9995 120.731 99.2083 122.945 97.7107C125.649 95.8819 127.721 92.7449 128.938 88.6389C129.81 85.6941 129.953 83.3066 129.966 83.0439C130.006 82.2598 129.514 81.5329 128.77 81.2771C128.522 81.1919 126.258 80.436 123.196 80.1494C122.475 80.0809 121.751 80.0462 121.027 80.0453C117.692 80.0453 114.759 80.8367 112.545 82.3341C109.841 84.1631 107.769 87.3001 106.552 91.4061C105.68 94.3509 105.537 96.7384 105.524 97.0011C105.484 97.7852 105.976 98.5121 106.72 98.7679C106.967 98.8531 109.232 99.6087 112.294 99.8956C113.03 99.9646 113.759 99.9995 114.461 99.9995ZM93.9572 79.5591C96.5272 79.5591 99.2684 78.8222 102.104 77.3692C104.84 75.9673 106.664 74.4244 106.863 74.2531C107.458 73.7404 107.645 72.8827 107.317 72.1681C107.273 72.0727 106.228 69.8147 104.286 67.3553C101.633 63.9939 98.5455 61.8495 95.3558 61.1544C94.5423 60.9769 93.6829 60.8872 92.8022 60.8872C90.232 60.8872 87.491 61.6242 84.6548 63.0774C81.919 64.4793 80.095 66.0222 79.8962 66.1935C79.3009 66.7062 79.1142 67.5641 79.4425 68.2787C79.4862 68.3741 80.5316 70.6319 82.473 73.0915C85.126 76.4529 88.2139 78.597 91.4036 79.2922C91.5276 79.3191 91.6528 79.3441 91.7792 79.3672L91.7813 79.3674C92.4815 79.4946 93.2118 79.5591 93.9572 79.5591ZM99.8651 26.6838C100.179 26.6833 100.487 26.5997 100.758 26.4416C101.03 26.2836 101.254 26.0565 101.409 25.7836C101.461 25.6925 102.681 23.5216 103.54 20.5106C104.715 16.3928 104.648 12.6337 103.346 9.63997C102.044 6.6465 99.3399 4.03407 95.5267 2.08524C92.7365 0.659323 90.3189 0.0730614 90.2173 0.0488612C90.0814 0.0161517 89.942 -0.000412435 89.8021 -0.000488281C89.4884 2.05989e-05 89.1803 0.0835961 88.9093 0.241744C88.6383 0.399891 88.414 0.626972 88.2592 0.899901C88.2075 0.991245 86.9868 3.16191 86.128 6.17317C84.9533 10.2912 85.0207 14.0503 86.3223 17.0438C87.6243 20.0373 90.3284 22.6495 94.1413 24.5985C96.9315 26.0242 99.3493 26.611 99.4511 26.6349C99.5868 26.6672 99.7257 26.6836 99.8651 26.6838Z" fill="white"/>
<path d="M143.4 88.3031C141.603 88.3031 140.005 87.0245 139.664 85.1939C139.28 83.1283 140.643 81.1422 142.708 80.7579C154.799 78.5089 164.94 70.4436 169.837 59.1834C174.418 48.6515 173.881 36.8238 168.363 26.733C167.355 24.8895 168.032 22.578 169.876 21.5698C171.719 20.5615 174.031 21.2391 175.039 23.0826C181.692 35.2508 182.34 49.5149 176.815 62.2179C170.908 75.7992 158.678 85.5265 144.1 88.2383C143.865 88.282 143.631 88.3031 143.4 88.3031Z" fill="white"/>
<path d="M179.216 52.8785C176.379 52.8785 174.276 52.4293 174.046 52.3783C173.67 52.2934 173.333 52.0896 173.083 51.7972C172.833 51.5048 172.684 51.1395 172.659 50.7557C172.653 50.6509 172.506 48.1654 173.054 45.082C173.802 40.8657 175.509 37.5158 177.991 35.3955C180.473 33.2749 184.047 32.1109 188.329 32.0298C188.496 32.0266 188.661 32.0251 188.823 32.0252C191.661 32.0252 193.765 32.4741 193.995 32.5254C194.37 32.6103 194.708 32.8142 194.958 33.1066C195.207 33.399 195.356 33.7642 195.381 34.148C195.388 34.2528 195.534 36.7384 194.987 39.822C194.239 44.0383 192.531 47.3879 190.049 49.5087C187.568 51.6291 183.993 52.7931 179.711 52.8742C179.543 52.877 179.378 52.8785 179.216 52.8785ZM154.852 99.9996C151.516 99.9996 148.582 99.2083 146.369 97.7108C143.665 95.882 141.593 92.745 140.376 88.639C139.504 85.6942 139.361 83.3067 139.347 83.044C139.308 82.2599 139.8 81.5329 140.543 81.2772C140.791 81.192 143.056 80.4361 146.118 80.1495C146.839 80.081 147.562 80.0463 148.286 80.0453C151.622 80.0453 154.555 80.8368 156.768 82.3342C159.473 84.1632 161.545 87.3002 162.761 91.4061C163.634 94.351 163.776 96.7385 163.79 97.0011C163.829 97.7853 163.337 98.5122 162.594 98.768C162.346 98.8532 160.081 99.6088 157.019 99.8957C156.299 99.964 155.576 99.9987 154.852 99.9996ZM175.357 79.5592C172.787 79.5592 170.045 78.8223 167.209 77.3693C164.473 75.9674 162.65 74.4245 162.451 74.2532C161.856 73.7405 161.669 72.8828 161.997 72.1682C162.041 72.0728 163.086 69.8148 165.028 67.3554C167.681 63.994 170.769 61.8496 173.958 61.1545C174.772 60.977 175.631 60.8873 176.512 60.8873C179.082 60.8873 181.823 61.6242 184.659 63.0774C187.395 64.4794 189.219 66.0223 189.418 66.1936C190.013 66.7063 190.2 67.5642 189.872 68.2788C189.828 68.3742 188.783 70.6319 186.841 73.0916C184.188 76.453 181.1 78.5971 177.91 79.2923C177.786 79.3194 177.66 79.3444 177.535 79.3673L177.533 79.3675C176.815 79.4964 176.086 79.5605 175.357 79.5592ZM169.449 26.6839C169.135 26.6834 168.827 26.5998 168.555 26.4417C168.284 26.2836 168.06 26.0566 167.905 25.7837C167.853 25.6926 166.632 23.5217 165.774 20.5107C164.599 16.3929 164.666 12.6338 165.968 9.64005C167.27 6.64658 169.974 4.03415 173.787 2.08532C176.578 0.659403 178.995 0.0731415 179.097 0.0489413C179.233 0.0162319 179.372 -0.000332327 179.512 -0.000408173C179.826 0.000100708 180.134 0.0836763 180.405 0.241824C180.676 0.399972 180.9 0.627052 181.055 0.899981C181.107 0.991325 182.327 3.16199 183.186 6.17325C184.361 10.2913 184.294 14.0504 182.992 17.0439C181.69 20.0374 178.986 22.6496 175.173 24.5986C172.383 26.0243 169.965 26.611 169.863 26.635C169.727 26.6673 169.588 26.6837 169.449 26.6839Z" fill="white"/>
<path d="M134.705 34.0979C132.739 34.0979 131.146 32.5044 131.146 30.539V26.6176C131.146 24.6522 132.739 23.0588 134.705 23.0588C136.67 23.0588 138.263 24.6522 138.263 26.6176V30.539C138.263 32.5044 136.67 34.0979 134.705 34.0979ZM111.13 40.0186C109.449 40.0186 107.954 38.8224 107.635 37.1098L106.868 32.9813C106.508 31.0489 107.783 29.1911 109.716 28.8317C111.649 28.4727 113.506 29.7475 113.865 31.6797L114.633 35.8082C114.993 37.7407 113.717 39.5984 111.785 39.9579C111.565 39.9989 111.346 40.0186 111.13 40.0186ZM158.262 40.1313C158.046 40.1313 157.827 40.1116 157.607 40.0708C155.675 39.7114 154.4 37.8536 154.759 35.9212L155.527 31.7927C155.887 29.8602 157.744 28.5861 159.677 28.9446C161.609 29.3041 162.884 31.1618 162.525 33.0943L161.757 37.2228C161.438 38.935 159.943 40.1313 158.262 40.1313Z" fill="white"/>
<path d="M153.751 64.3347H115.656C114.825 64.3347 114.02 64.0439 113.381 63.5127C112.742 62.9816 112.309 62.2436 112.157 61.4266L107.634 37.1101C107.504 36.412 107.586 35.691 107.87 35.0398C108.153 34.3886 108.624 33.837 109.223 33.456C109.823 33.075 110.522 32.8819 111.232 32.9017C111.942 32.9215 112.63 33.1531 113.207 33.5669L125.301 42.2365L131.48 29.0308C131.767 28.418 132.223 27.8996 132.793 27.5364C133.364 27.1733 134.027 26.9804 134.704 26.9804C135.38 26.9804 136.043 27.1733 136.614 27.5364C137.185 27.8996 137.64 28.418 137.927 29.0308L144.106 42.2365L156.2 33.5669C156.777 33.1533 157.465 32.9217 158.175 32.902C158.885 32.8823 159.584 33.0753 160.183 33.4563C160.782 33.8373 161.254 34.3888 161.537 35.04C161.82 35.6911 161.902 36.4121 161.772 37.1101L157.25 61.4266C157.098 62.2435 156.665 62.9816 156.026 63.5128C155.387 64.0439 154.582 64.3347 153.751 64.3347Z" fill="white"/>
<path d="M160.185 33.4562C159.585 33.0752 158.886 32.8821 158.176 32.9018C157.466 32.9215 156.779 33.1531 156.201 33.5668L144.107 42.2364L137.928 29.0307C137.641 28.4178 137.186 27.8994 136.615 27.5362C136.044 27.173 135.381 26.9801 134.705 26.9801V64.3348H153.753C154.583 64.3347 155.388 64.044 156.027 63.5128C156.666 62.9817 157.099 62.2436 157.251 61.4267L161.774 37.1102C161.904 36.4121 161.822 35.6911 161.539 35.0399C161.255 34.3887 160.784 33.8372 160.185 33.4562Z" fill="white"/>
<path d="M156.126 64.3346H113.285C111.32 64.3346 109.726 62.7412 109.726 60.7758C109.726 58.8103 111.32 57.2169 113.285 57.2169H156.126C158.091 57.2169 159.684 58.8103 159.684 60.7758C159.684 62.7412 158.091 64.3346 156.126 64.3346Z" fill="white"/>
<path d="M156.124 57.2168H134.703V64.3345H156.124C158.089 64.3345 159.682 62.7411 159.682 60.7757C159.682 58.8102 158.089 57.2168 156.124 57.2168Z" fill="white"/>
</g>
<path d="M28.5331 70.4917C29.0586 69.9663 29.9103 69.9663 30.4358 70.4917L33.9603 74.0162C34.4858 74.5409 34.4858 75.3934 33.9603 75.9181C33.4385 76.4415 32.5858 76.4462 32.0576 75.9181L28.5331 72.3936C28.0076 71.868 28.0076 71.0164 28.5331 70.4917ZM38.0935 60.9312C38.6182 60.4058 39.4699 60.4058 39.9953 60.9312L43.5198 64.4558C44.0453 64.9812 44.0453 65.8329 43.5198 66.3584C42.9952 66.883 42.1448 66.8853 41.618 66.3584L38.0935 62.8339C37.568 62.3085 37.568 61.4567 38.0935 60.9312ZM31.7196 64.1179C32.2451 63.5924 33.0968 63.5932 33.6223 64.1179L42.5546 73.0502C43.0801 73.5757 43.0801 74.4274 42.5546 74.9529C42.0293 75.4766 41.1793 75.4785 40.652 74.9529L31.7196 66.0205C31.1941 65.495 31.1941 64.6433 31.7196 64.1179ZM4.20962 38.3045L16.9574 77.3163C17.3177 78.4174 18.8141 78.5781 19.399 77.5744L27.216 63.7497C27.3483 63.5222 27.4111 63.261 27.3964 62.9983C27.3818 62.7355 27.2904 62.4829 27.1336 62.2716L12.8015 44.9591L29.7106 59.3691C29.922 59.5259 30.1746 59.6173 30.4373 59.6319C30.7 59.6466 30.9613 59.5838 31.1887 59.4515L45.1762 51.7971C46.1763 51.2154 46.0225 49.717 44.918 49.3555L5.9063 36.6078C4.86357 36.2675 3.86785 37.2574 4.20962 38.3045Z" fill="#1BA1E2"/>
<path d="M242.758 70.4917C242.232 69.9663 241.38 69.9663 240.855 70.4917L237.33 74.0162C236.805 74.5409 236.805 75.3934 237.33 75.9181C237.852 76.4415 238.705 76.4462 239.233 75.9181L242.758 72.3936C243.283 71.868 243.283 71.0164 242.758 70.4917ZM233.197 60.9312C232.672 60.4058 231.821 60.4058 231.295 60.9312L227.771 64.4558C227.245 64.9812 227.245 65.8329 227.771 66.3584C228.295 66.883 229.146 66.8853 229.673 66.3584L233.197 62.8339C233.723 62.3085 233.723 61.4567 233.197 60.9312ZM239.571 64.1179C239.046 63.5924 238.194 63.5932 237.668 64.1179L228.736 73.0502C228.211 73.5757 228.211 74.4274 228.736 74.9529C229.261 75.4766 230.111 75.4785 230.639 74.9529L239.571 66.0205C240.096 65.495 240.096 64.6433 239.571 64.1179ZM267.081 38.3045L254.333 77.3163C253.973 78.4174 252.477 78.5781 251.892 77.5744L244.075 63.7497C243.942 63.5222 243.88 63.261 243.894 62.9983C243.909 62.7355 244 62.4829 244.157 62.2716L258.489 44.9591L241.58 59.3691C241.369 59.5259 241.116 59.6173 240.853 59.6319C240.591 59.6466 240.329 59.5838 240.102 59.4515L226.114 51.7971C225.114 51.2154 225.268 49.717 226.373 49.3555L265.384 36.6078C266.427 36.2675 267.423 37.2574 267.081 38.3045Z" fill="#1BA1E2"/>
<defs>
<clipPath id="clip0_1_998">
<rect width="121.494" height="100" fill="white" transform="translate(73.9098)"/>
</clipPath>
</defs>
</svg>
