<svg width="20" height="17" viewBox="0 0 20 17" fill="none" xmlns="http://www.w3.org/2000/svg">
<path d="M2.10339 12.6657L1.54854 4.04702C1.51772 3.5641 2.09778 3.29789 2.44339 3.63509L4.95885 6.08797C4.95885 6.08797 7.83392 3.22596 9.33027 1.72958C9.81133 1.24759 10.5894 1.24947 11.0677 1.73238C12.55 3.22783 15.4158 6.09264 15.4158 6.09264C15.4158 6.09264 16.8981 4.63828 17.9331 3.62388C18.2787 3.28481 18.8579 3.55476 18.8261 4.03768L18.2712 12.6648C18.162 14.3666 16.7488 15.6912 15.044 15.6912H5.33154C3.62593 15.6912 2.2136 14.3666 2.10339 12.6657Z" stroke="#1BA1E2" stroke-width="2" stroke-linecap="round" stroke-linejoin="round"/>
<path d="M2.01221 11.2617H18.3604" stroke="#1BA1E2" stroke-width="2" stroke-linecap="round" stroke-linejoin="round"/>
</svg>
