<svg width="25" height="25" viewBox="0 0 25 25" fill="none" xmlns="http://www.w3.org/2000/svg">
<path d="M19.9564 4.38299L12.9564 2.14299C12.491 1.99366 11.999 1.99499 11.535 2.14299L4.53369 4.38299C3.56302 4.69366 2.91235 5.58699 2.91235 6.60566V15.299C2.91235 19.9763 9.50702 22.471 11.5257 23.1243C11.7617 23.2003 12.003 23.239 12.2457 23.239C12.4884 23.239 12.7284 23.2017 12.963 23.1257C14.9844 22.4723 21.579 19.9777 21.579 15.3003V6.60566C21.579 5.58699 20.927 4.69366 19.9564 4.38299ZM16.3817 10.235L11.8524 16.235C11.6817 16.4603 11.423 16.603 11.1404 16.6283C11.1124 16.631 11.083 16.6323 11.0537 16.6323C10.8017 16.6323 10.5577 16.5377 10.3724 16.3643L8.22702 14.3643C7.82302 13.987 7.80035 13.355 8.17635 12.951C8.55502 12.547 9.18702 12.5257 9.58969 12.9003L10.9244 14.1443L14.7857 9.02966C15.119 8.58966 15.7457 8.50166 16.187 8.83499C16.6284 9.16833 16.715 9.79366 16.3817 10.235Z" fill="#F0A059"/>
</svg>
