<svg width="25" height="25" viewBox="0 0 25 25" fill="none" xmlns="http://www.w3.org/2000/svg">
<g clip-path="url(#clip0_1_5619)">
<path d="M4.13095 15.2777C4.28485 15.3811 4.46606 15.4362 4.65145 15.4361C4.9538 15.4361 5.25066 15.2901 5.43145 15.0199C6.94631 12.7562 9.47864 11.4048 12.2054 11.4048C14.9241 11.4048 17.4523 12.7501 18.9682 15.0034C19.2573 15.433 19.8398 15.5469 20.2694 15.2579C20.699 14.9689 20.8129 14.3863 20.5239 13.9568C19.3127 12.1565 17.5762 10.8281 15.5917 10.1175C16.7818 9.14532 17.543 7.66702 17.543 6.01416C17.543 3.09343 15.1668 0.717285 12.2461 0.717285C9.32536 0.717285 6.94922 3.09343 6.94922 6.01416C6.94922 7.65516 7.69931 9.12418 8.87466 10.0966C6.85922 10.8046 5.09658 12.149 3.87319 13.9771C3.58523 14.4075 3.70064 14.9897 4.13095 15.2777ZM12.2461 2.59229C14.1329 2.59229 15.668 4.12735 15.668 6.01416C15.668 7.90097 14.1329 9.43604 12.2461 9.43604C10.3593 9.43604 8.82422 7.90097 8.82422 6.01416C8.82422 4.12735 10.3593 2.59229 12.2461 2.59229ZM15.9847 17.3171L14.5871 18.3254C14.3792 18.4754 14.2921 18.7413 14.3716 18.984L14.9344 20.6153C14.9571 20.6834 14.9672 20.755 14.9643 20.8267C14.9444 21.2648 14.3952 21.5645 13.9925 21.274L12.5949 20.2655C12.4934 20.1922 12.3713 20.1529 12.2461 20.153C12.1238 20.153 12.0014 20.1905 11.8974 20.2655L10.4998 21.274C10.0971 21.5645 9.5453 21.2648 9.52786 20.8267C9.5253 20.755 9.53562 20.6834 9.55833 20.6153L10.1206 18.984C10.2001 18.7413 10.113 18.4754 9.90511 18.3254L8.50748 17.3171C8.04248 16.9817 8.28145 16.186 8.85623 16.186H10.5838C10.8408 16.186 11.0686 16.0871 11.148 15.8444L11.6819 14.2025C11.7707 13.9311 12.0084 13.7954 12.2461 13.7954C12.4839 13.7954 12.7216 13.9311 12.8104 14.2025L13.3442 15.8444C13.4237 16.0871 13.6515 16.186 13.9085 16.186H15.636C16.2108 16.186 16.4497 16.9817 15.9847 17.3171ZM24.0004 20.5984L22.6027 21.6066C22.3948 21.7566 22.3078 22.0225 22.3872 22.2653L22.95 23.8966C22.9727 23.9646 22.9829 24.0362 22.9799 24.1079C22.96 24.5461 22.4108 24.8458 22.0081 24.5552L20.6105 23.5467C20.5065 23.4717 20.3842 23.4342 20.2618 23.4342C20.1394 23.4342 20.017 23.4717 19.913 23.5467L18.5154 24.5552C18.1127 24.8458 17.5609 24.5461 17.5435 24.1079C17.5409 24.0362 17.5512 23.9646 17.574 23.8966L18.1363 22.2653C18.2157 22.0225 18.1287 21.7566 17.9207 21.6066L16.5231 20.5984C16.0581 20.2629 16.2971 19.4673 16.8719 19.4673H18.5994C18.8565 19.4673 19.0843 19.3683 19.1637 19.1256L19.6975 17.4837C19.7863 17.2124 20.024 17.0767 20.2618 17.0767C20.4995 17.0767 20.7372 17.2124 20.826 17.4837L21.3599 19.1256C21.4393 19.3683 21.6671 19.4673 21.9241 19.4673H23.6517C24.2264 19.4673 24.4654 20.2629 24.0004 20.5984ZM7.96912 20.5984L6.5715 21.6066C6.36356 21.7566 6.27652 22.0225 6.35597 22.2653L6.9188 23.8966C6.9415 23.9646 6.95162 24.0362 6.94866 24.1079C6.92873 24.5461 6.37959 24.8458 5.97684 24.5552L4.57922 23.5467C4.47525 23.4717 4.35286 23.4342 4.23047 23.4342C4.10808 23.4342 3.98569 23.4717 3.88172 23.5467L2.48414 24.5552C2.08139 24.8458 1.52962 24.5461 1.51219 24.1079C1.50963 24.0362 1.51995 23.9646 1.54266 23.8966L2.10497 22.2653C2.18442 22.0225 2.09737 21.7566 1.88944 21.6066L0.491812 20.5984C0.0268125 20.2629 0.265781 19.4673 0.840562 19.4673H2.56809C2.82516 19.4673 3.05297 19.3683 3.13238 19.1256L3.66619 17.4837C3.75502 17.2124 3.99272 17.0767 4.23047 17.0767C4.46822 17.0767 4.70592 17.2124 4.79475 17.4837L5.32856 19.1256C5.40802 19.3683 5.63578 19.4673 5.89284 19.4673H7.62037C8.19516 19.4673 8.43412 20.2629 7.96912 20.5984Z" fill="#F15757"/>
</g>
<defs>
<clipPath id="clip0_1_5619">
<rect width="24" height="24" fill="white" transform="translate(0.246094 0.693848)"/>
</clipPath>
</defs>
</svg>
