<svg width="20" height="21" viewBox="0 0 20 21" fill="none" xmlns="http://www.w3.org/2000/svg">
<path fill-rule="evenodd" clip-rule="evenodd" d="M13.1462 12.7656C13.3719 12.7656 13.5884 12.8556 13.7477 13.0155L17.2294 16.5117C17.5902 16.8722 17.5902 17.4614 17.2294 17.8219C16.8687 18.1824 16.2792 18.1824 15.9184 17.8219L12.4279 14.3334C12.2686 14.1741 12.179 13.9581 12.179 13.7328V13.4926C12.179 13.4268 12.1535 13.3635 12.1078 13.3161C12.0144 13.2193 11.8621 13.2126 11.7564 13.2958C10.544 14.2506 8.94123 14.7295 7.24301 14.4452C4.79699 14.0319 2.8437 11.9918 2.54454 9.52965C2.08702 5.81002 5.21932 2.67954 8.94114 3.1368C11.4048 3.43578 13.446 5.38793 13.8596 7.83251C14.144 9.52968 13.6649 11.1315 12.7096 12.3431C12.6263 12.4488 12.6331 12.6012 12.73 12.6945C12.7773 12.7402 12.8405 12.7656 12.9062 12.7656H13.1462ZM4.26028 8.80857C4.26028 10.9981 6.0288 12.7656 8.21966 12.7656C10.4105 12.7656 12.179 10.9981 12.179 8.80857C12.179 6.619 10.4105 4.85151 8.21966 4.85151C6.0288 4.85151 4.26028 6.619 4.26028 8.80857Z" fill="white"/>
</svg>
