<svg width="20" height="18" viewBox="0 0 20 18" fill="none" xmlns="http://www.w3.org/2000/svg">
<path d="M1.59998 4.2H9.99998" stroke="#F7F7F7" stroke-width="2" stroke-linecap="round" stroke-linejoin="round"/>
<path d="M13 7.2C14.6569 7.2 16 5.85685 16 4.2C16 2.54314 14.6569 1.2 13 1.2C11.3431 1.2 10 2.54314 10 4.2C10 5.85685 11.3431 7.2 13 7.2Z" stroke="#F7F7F7" stroke-width="2" stroke-linecap="round" stroke-linejoin="round"/>
<path d="M16 4.2H18.4" stroke="#F7F7F7" stroke-width="2" stroke-linecap="round" stroke-linejoin="round"/>
<path d="M18.4 13.8H10" stroke="#F7F7F7" stroke-width="2" stroke-linecap="round" stroke-linejoin="round"/>
<path d="M7 16.8C8.65685 16.8 10 15.4569 10 13.8C10 12.1431 8.65685 10.8 7 10.8C5.34315 10.8 4 12.1431 4 13.8C4 15.4569 5.34315 16.8 7 16.8Z" stroke="#F7F7F7" stroke-width="2" stroke-linecap="round" stroke-linejoin="round"/>
<path d="M3.99998 13.8H1.59998" stroke="#F7F7F7" stroke-width="2" stroke-linecap="round" stroke-linejoin="round"/>
</svg>
