<svg width="25" height="25" viewBox="0 0 25 25" fill="none" xmlns="http://www.w3.org/2000/svg">
<path d="M22.7462 1.69385H14.7462C14.5484 1.69389 14.3551 1.75256 14.1907 1.86245C14.0263 1.97233 13.8982 2.12849 13.8225 2.31119C13.7468 2.49389 13.727 2.69493 13.7656 2.88888C13.8042 3.08283 13.8994 3.261 14.0392 3.40085L17.3322 6.69385L11.0392 12.9868C10.9437 13.0791 10.8675 13.1894 10.8151 13.3114C10.7627 13.4334 10.7351 13.5647 10.7339 13.6974C10.7328 13.8302 10.7581 13.9619 10.8084 14.0848C10.8586 14.2077 10.9329 14.3193 11.0268 14.4132C11.1207 14.5071 11.2323 14.5814 11.3552 14.6317C11.4781 14.6819 11.6098 14.7073 11.7426 14.7061C11.8754 14.7049 12.0066 14.6774 12.1286 14.6249C12.2506 14.5725 12.3609 14.4964 12.4532 14.4008L18.7462 8.10785L22.0392 11.4008C22.2267 11.5884 22.481 11.6938 22.7462 11.6938C22.8776 11.6943 23.0078 11.6684 23.1292 11.6178C23.3119 11.5421 23.468 11.4139 23.5778 11.2494C23.6876 11.085 23.7462 10.8916 23.7462 10.6938V2.69385C23.7462 2.42863 23.6408 2.17428 23.4533 1.98674C23.2657 1.7992 23.0114 1.69385 22.7462 1.69385Z" fill="#00C979"/>
<path d="M4.74609 23.6938H18.7461C19.5417 23.6938 20.3048 23.3778 20.8674 22.8152C21.43 22.2526 21.7461 21.4895 21.7461 20.6938V15.6938C21.7461 15.4286 21.6407 15.1743 21.4532 14.9867C21.2657 14.7992 21.0113 14.6938 20.7461 14.6938C20.4809 14.6938 20.2265 14.7992 20.039 14.9867C19.8514 15.1743 19.7461 15.4286 19.7461 15.6938V20.6938C19.7461 20.9591 19.6407 21.2134 19.4532 21.401C19.2657 21.5885 19.0113 21.6938 18.7461 21.6938H4.74609C4.48088 21.6938 4.22652 21.5885 4.03899 21.401C3.85145 21.2134 3.74609 20.9591 3.74609 20.6938V6.69385C3.74609 6.42863 3.85145 6.17428 4.03899 5.98674C4.22652 5.7992 4.48088 5.69385 4.74609 5.69385H9.74609C10.0113 5.69385 10.2657 5.58849 10.4532 5.40095C10.6407 5.21342 10.7461 4.95906 10.7461 4.69385C10.7461 4.42863 10.6407 4.17428 10.4532 3.98674C10.2657 3.7992 10.0113 3.69385 9.74609 3.69385H4.74609C3.95044 3.69385 3.18738 4.00992 2.62477 4.57253C2.06216 5.13514 1.74609 5.8982 1.74609 6.69385V20.6938C1.74609 21.4895 2.06216 22.2526 2.62477 22.8152C3.18738 23.3778 3.95044 23.6938 4.74609 23.6938Z" fill="#00C979"/>
</svg>
