<svg width="25" height="25" viewBox="0 0 25 25" fill="none" xmlns="http://www.w3.org/2000/svg">
<g clip-path="url(#clip0_1_5649)">
<path d="M24.4128 16.6938C24.4128 14.3045 22.4688 12.3605 20.0794 12.3605C17.6901 12.3605 15.7461 14.3045 15.7461 16.6938C15.7461 18.0725 16.4061 19.2885 17.4128 20.0832V24.0272C17.4128 24.2965 17.5754 24.5405 17.8248 24.6432C18.0741 24.7485 18.3594 24.6898 18.5514 24.4992L20.0794 22.9712L21.6074 24.4992C21.7354 24.6272 21.9061 24.6938 22.0794 24.6938C22.1648 24.6938 22.2528 24.6778 22.3341 24.6432C22.5834 24.5405 22.7461 24.2965 22.7461 24.0272V20.0832C23.7528 19.2885 24.4128 18.0725 24.4128 16.6938ZM20.0794 14.3605C21.3661 14.3605 22.4128 15.4072 22.4128 16.6938C22.4128 17.9805 21.3661 19.0272 20.0794 19.0272C18.7928 19.0272 17.7461 17.9805 17.7461 16.6938C17.7461 15.4072 18.7928 14.3605 20.0794 14.3605Z" fill="#7A65FE"/>
<path d="M15.4128 20.9485C14.3434 19.7872 13.7461 18.2832 13.7461 16.6938C13.7461 13.2018 16.5874 10.3605 20.0794 10.3605C20.5381 10.3605 20.9821 10.4152 21.4128 10.5072V5.69384C21.4128 3.67118 19.7688 2.02718 17.7461 2.02718H6.41276C4.39009 2.02718 2.74609 3.67118 2.74609 5.69384V19.6938C2.74609 21.7165 4.39009 23.3605 6.41276 23.3605H15.4128V20.9485ZM7.74609 7.36051H15.7461C16.2981 7.36051 16.7461 7.80851 16.7461 8.36051C16.7461 8.91251 16.2981 9.36051 15.7461 9.36051H7.74609C7.19409 9.36051 6.74609 8.91251 6.74609 8.36051C6.74609 7.80851 7.19409 7.36051 7.74609 7.36051ZM11.0794 18.0272H7.74609C7.19409 18.0272 6.74609 17.5792 6.74609 17.0272C6.74609 16.4752 7.19409 16.0272 7.74609 16.0272H11.0794C11.6314 16.0272 12.0794 16.4752 12.0794 17.0272C12.0794 17.5792 11.6314 18.0272 11.0794 18.0272ZM11.0794 13.6938H7.74609C7.19409 13.6938 6.74609 13.2458 6.74609 12.6938C6.74609 12.1418 7.19409 11.6938 7.74609 11.6938H11.0794C11.6314 11.6938 12.0794 12.1418 12.0794 12.6938C12.0794 13.2458 11.6314 13.6938 11.0794 13.6938Z" fill="#7A65FE"/>
</g>
<defs>
<clipPath id="clip0_1_5649">
<rect width="24" height="24" fill="white" transform="translate(0.746094 0.693848)"/>
</clipPath>
</defs>
</svg>
