<svg width="87" height="70" viewBox="0 0 87 70" fill="none" xmlns="http://www.w3.org/2000/svg">
<g clip-path="url(#clip0_1_2427)">
<path d="M37.3805 61.8119C38.6386 61.8119 39.7573 60.9169 39.9958 59.6354C40.2647 58.1895 39.3105 56.7992 37.8646 56.5302C29.4016 54.9559 22.3023 49.3102 18.8744 41.428C15.6677 34.0558 16.0441 25.7763 19.9066 18.7128C20.6123 17.4224 20.1381 15.8043 18.8477 15.0986C17.5572 14.3927 15.9391 14.8671 15.2334 16.1575C10.5761 24.6752 10.1228 34.6601 13.9903 43.5522C18.1251 53.0591 26.6858 59.8682 36.8909 61.7665C37.0552 61.7971 37.2191 61.8119 37.3805 61.8119Z" fill="white"/>
<path d="M12.3091 37.0147C14.2947 37.0147 15.7669 36.7003 15.9281 36.6646C16.1907 36.6052 16.4271 36.4625 16.602 36.2578C16.7769 36.0532 16.881 35.7975 16.8987 35.5288C16.9032 35.4554 17.0057 33.7155 16.6225 31.5572C16.0987 28.6058 14.9038 26.2609 13.1664 24.7766C11.4292 23.2922 8.92687 22.4774 5.92963 22.4206C5.81271 22.4184 5.69739 22.4174 5.58368 22.4175C3.59687 22.4175 2.12474 22.7317 1.96331 22.7676C1.70075 22.827 1.46443 22.9697 1.28956 23.1744C1.11469 23.3791 1.01063 23.6348 0.992902 23.9034C0.988418 23.9768 0.885947 25.7166 1.26893 27.8752C1.79258 30.8266 2.98785 33.1713 4.72521 34.6559C6.46224 36.1401 8.96474 36.9549 11.9618 37.0117C12.0795 37.0137 12.1953 37.0147 12.3091 37.0147ZM29.3633 69.9995C31.6987 69.9995 33.7523 69.4456 35.302 68.3973C37.1947 67.1172 38.6452 64.9213 39.4967 62.0471C40.1075 59.9857 40.2073 58.3145 40.2166 58.1306C40.2442 57.5817 39.8999 57.0728 39.3794 56.8938C39.2061 56.8342 37.6207 56.3051 35.4774 56.1044C34.9728 56.0565 34.4663 56.0322 33.9594 56.0315C31.6247 56.0315 29.5716 56.5856 28.0219 57.6337C26.1291 58.914 24.6785 61.1099 23.8271 63.9841C23.2162 66.0455 23.1164 67.7167 23.1069 67.9006C23.0794 68.4495 23.4236 68.9584 23.9441 69.1374C24.1175 69.197 25.7028 69.726 27.8462 69.9268C28.361 69.9751 28.8716 69.9995 29.3633 69.9995ZM15.0104 55.6912C16.8094 55.6912 18.7282 55.1754 20.7134 54.1583C22.6286 53.177 23.9053 52.0969 24.0445 51.977C24.4612 51.6181 24.5919 51.0177 24.3622 50.5175C24.3316 50.4508 23.5997 48.8702 22.2408 47.1486C20.3837 44.7956 18.2222 43.2945 15.9894 42.8079C15.4199 42.6837 14.8184 42.6209 14.2019 42.6209C12.4028 42.6209 10.484 43.1368 8.49872 44.154C6.58365 45.1354 5.30683 46.2154 5.16765 46.3353C4.75096 46.6942 4.62025 47.2947 4.85011 47.795C4.88067 47.8617 5.61241 49.4422 6.97145 51.1639C8.82855 53.5169 10.9901 55.0178 13.2229 55.5044C13.3097 55.5232 13.3973 55.5407 13.4858 55.5569L13.4873 55.557C13.9774 55.6461 14.4886 55.6912 15.0104 55.6912ZM19.1459 18.6785C19.3657 18.6781 19.5814 18.6197 19.7712 18.509C19.961 18.3983 20.1182 18.2394 20.2268 18.0484C20.2628 17.9846 21.1173 16.465 21.7185 14.3573C22.5408 11.4748 22.4938 8.84343 21.5825 6.74783C20.671 4.6524 18.7782 2.8237 16.109 1.45952C14.1559 0.46138 12.4635 0.0509965 12.3925 0.0340564C12.2973 0.0111597 12.1997 -0.000435189 12.1018 -0.000488281C11.8822 -0.000132065 11.6666 0.0583708 11.4769 0.169074C11.2872 0.279777 11.1302 0.438734 11.0218 0.629784C10.9856 0.693725 10.1311 2.21319 9.52991 4.32108C8.70764 7.20372 8.75481 9.83509 9.66593 11.9305C10.5774 14.026 12.4702 15.8545 15.1393 17.2188C17.0924 18.2168 18.7849 18.6275 18.8561 18.6443C18.9511 18.6669 19.0483 18.6784 19.1459 18.6785Z" fill="white"/>
<path d="M49.6205 61.8121C48.3624 61.8121 47.2437 60.9171 47.0052 59.6356C46.7363 58.1897 47.6904 56.7995 49.1363 56.5304C57.5994 54.9561 64.6987 49.3104 68.1266 41.4283C71.3332 34.056 70.9569 25.7766 67.0945 18.713C66.3889 17.4226 66.863 15.8045 68.1535 15.0988C69.4439 14.393 71.062 14.8673 71.7677 16.1577C76.4251 24.6755 76.8783 34.6603 73.0108 43.5524C68.8761 53.0593 60.3153 59.8684 50.1104 61.7667C49.9458 61.7973 49.7819 61.8121 49.6205 61.8121Z" fill="white"/>
<path d="M74.6918 37.0149C72.7061 37.0149 71.234 36.7005 71.0728 36.6648C70.8102 36.6054 70.5738 36.4627 70.3989 36.258C70.224 36.0533 70.1199 35.7976 70.1022 35.529C70.0977 35.4556 69.9952 33.7157 70.3784 31.5573C70.9022 28.6059 72.097 26.2611 73.8345 24.7768C75.5717 23.2924 78.074 22.4776 81.0713 22.4208C81.1882 22.4186 81.3035 22.4175 81.4172 22.4176C83.4039 22.4176 84.8762 22.7319 85.0374 22.7677C85.3 22.8272 85.5363 22.9699 85.7112 23.1746C85.886 23.3792 85.9901 23.6349 86.0078 23.9035C86.0123 23.977 86.1148 25.7168 85.7318 27.8753C85.2081 30.8268 84.0129 33.1715 82.2755 34.6561C80.5385 36.1403 78.036 36.9551 75.0389 37.0119C74.9213 37.0139 74.8056 37.0149 74.6918 37.0149ZM57.6376 69.9997C55.3021 69.9997 53.2486 69.4458 51.6989 68.3975C49.8062 67.1174 48.3557 64.9215 47.5042 62.0473C46.8934 59.9859 46.7935 58.3146 46.7841 58.1308C46.7565 57.5819 47.1008 57.073 47.6213 56.894C47.7947 56.8344 49.3801 56.3052 51.5233 56.1046C52.0279 56.0567 52.5344 56.0323 53.0413 56.0317C55.376 56.0317 57.4291 56.5857 58.9788 57.6339C60.8716 58.9142 62.3222 61.1101 63.1737 63.9843C63.7845 66.0457 63.8843 67.7169 63.8936 67.9008C63.9212 68.4496 63.5769 68.9585 63.0564 69.1376C62.883 69.1972 61.2978 69.7261 59.1544 69.9269C58.6502 69.9748 58.144 69.999 57.6376 69.9997ZM71.9905 55.6914C70.1915 55.6914 68.2727 55.1756 66.2875 54.1585C64.3723 53.1771 63.0956 52.0971 62.9564 51.9772C62.5399 51.6183 62.409 51.0179 62.6389 50.5177C62.6694 50.4509 63.4014 48.8703 64.7602 47.1488C66.6173 44.7957 68.7789 43.2947 71.0116 42.8081C71.5811 42.6839 72.1827 42.6211 72.7992 42.6211C74.5983 42.6211 76.517 43.1369 78.5023 44.1542C80.4174 45.1355 81.6942 46.2155 81.8334 46.3355C82.2501 46.6944 82.3808 47.2949 82.1509 47.7951C82.1204 47.8619 81.3886 49.4423 80.0296 51.1641C78.1725 53.5171 76.011 55.0179 73.7782 55.5046C73.6909 55.5236 73.6032 55.5411 73.5153 55.557L73.5138 55.5572C73.0111 55.6474 72.5013 55.6923 71.9905 55.6914ZM67.855 18.6787C67.6352 18.6783 67.4195 18.6198 67.2297 18.5092C67.0399 18.3985 66.8827 18.2396 66.7741 18.0486C66.7381 17.9848 65.8836 16.4652 65.2824 14.3574C64.4601 11.475 64.5073 8.84359 65.4186 6.748C66.33 4.65257 68.2228 2.82386 70.8921 1.45968C72.8452 0.461544 74.5375 0.0511605 74.6086 0.0342204C74.7038 0.0113238 74.8013 -0.000271157 74.8992 -0.000324249C75.1189 3.19668e-05 75.3345 0.0585349 75.5242 0.169238C75.7139 0.279942 75.8709 0.438898 75.9793 0.629948C76.0155 0.693889 76.8699 2.21335 77.4711 4.32124C78.2934 7.20389 78.2464 9.83526 77.3351 11.9307C76.4237 14.0261 74.5309 15.8547 71.8618 17.219C69.9087 18.217 68.2162 18.6277 68.1449 18.6445C68.0499 18.667 67.9526 18.6785 67.855 18.6787Z" fill="white"/>
<path d="M43.5333 23.8685C42.1575 23.8685 41.0421 22.7531 41.0421 21.3773V18.6323C41.0421 17.2565 42.1575 16.1411 43.5333 16.1411C44.9091 16.1411 46.0245 17.2565 46.0245 18.6323V21.3773C46.0245 22.7531 44.9091 23.8685 43.5333 23.8685ZM27.0313 28.013C25.8546 28.013 24.8078 27.1756 24.5849 25.9769L24.0475 23.0869C23.7959 21.7342 24.6885 20.4338 26.0411 20.1822C27.3943 19.9309 28.6942 20.8232 28.9458 22.1758L29.4833 25.0657C29.7349 26.4185 28.8422 27.7189 27.4896 27.9705C27.3357 27.9992 27.1824 28.013 27.0313 28.013ZM60.0237 28.0919C59.8725 28.0919 59.7193 28.0781 59.5653 28.0495C58.2126 27.7979 57.3201 26.4975 57.5717 25.1448L58.1091 22.2548C58.3607 20.9021 59.661 20.0103 61.0139 20.2612C62.3666 20.5128 63.2591 21.8132 63.0075 23.166L62.47 26.0559C62.247 27.2545 61.2004 28.0919 60.0237 28.0919Z" fill="white"/>
<path d="M56.8666 45.0342H30.1998C29.6182 45.0342 29.0548 44.8307 28.6075 44.4589C28.1602 44.0871 27.857 43.5704 27.7507 42.9986L24.5847 25.9771C24.4937 25.4884 24.551 24.9837 24.7493 24.5278C24.9475 24.072 25.2776 23.6859 25.697 23.4191C26.1165 23.1524 26.6061 23.0173 27.103 23.0311C27.5999 23.045 28.0813 23.2072 28.4852 23.4968L36.9515 29.5655L41.2767 20.3215C41.4774 19.8926 41.7963 19.5297 42.196 19.2755C42.5956 19.0213 43.0594 18.8862 43.5331 18.8862C44.0067 18.8862 44.4705 19.0213 44.8702 19.2755C45.2698 19.5297 45.5887 19.8926 45.7894 20.3215L50.1145 29.5655L58.5807 23.4968C58.9847 23.2073 59.4661 23.0451 59.9629 23.0313C60.4598 23.0175 60.9494 23.1527 61.3688 23.4194C61.7882 23.6861 62.1183 24.0721 62.3165 24.5279C62.5148 24.9837 62.5721 25.4884 62.4813 25.9771L59.3153 42.9986C59.2091 43.5704 58.9061 44.0871 58.4588 44.4589C58.0115 44.8307 57.4482 45.0343 56.8666 45.0342Z" fill="white"/>
<path d="M61.3699 23.4194C60.9504 23.1527 60.4608 23.0175 59.9639 23.0313C59.4671 23.0451 58.9857 23.2072 58.5817 23.4968L50.1154 29.5655L45.7904 20.3215C45.5897 19.8925 45.2708 19.5296 44.8712 19.2754C44.4715 19.0211 44.0077 18.8861 43.534 18.8861V45.0344H56.8674C57.4491 45.0344 58.0124 44.8308 58.4598 44.459C58.9071 44.0872 59.2102 43.5706 59.3166 42.9987L62.4826 25.9772C62.5735 25.4885 62.5161 24.9838 62.3178 24.528C62.1195 24.0721 61.7893 23.6861 61.3699 23.4194Z" fill="white"/>
<path d="M58.5276 45.0342H28.5392C27.1634 45.0342 26.048 43.9188 26.048 42.543C26.048 41.1671 27.1634 40.0518 28.5392 40.0518H58.5276C59.9034 40.0518 61.0188 41.1671 61.0188 42.543C61.0188 43.9188 59.9034 45.0342 58.5276 45.0342Z" fill="white"/>
<path d="M58.5275 40.0519H43.5333V45.0343H58.5275C59.9033 45.0343 61.0187 43.9189 61.0187 42.5431C61.0187 41.1673 59.9033 40.0519 58.5275 40.0519Z" fill="white"/>
</g>
<defs>
<clipPath id="clip0_1_2427">
<rect width="85.046" height="70" fill="white" transform="translate(0.977295)"/>
</clipPath>
</defs>
</svg>
