<svg width="16" height="17" viewBox="0 0 16 17" fill="none" xmlns="http://www.w3.org/2000/svg">
<path d="M5.11089 8.59248C6.46092 8.59248 7.55533 7.49806 7.55533 6.14803C7.55533 4.798 6.46092 3.70359 5.11089 3.70359C3.76086 3.70359 2.66644 4.798 2.66644 6.14803C2.66644 7.49806 3.76086 8.59248 5.11089 8.59248Z" fill="#A7ABB1"/>
<path d="M10.6665 6.37025C12.0165 6.37025 13.1109 5.27584 13.1109 3.92581C13.1109 2.57578 12.0165 1.48136 10.6665 1.48136C9.31643 1.48136 8.22202 2.57578 8.22202 3.92581C8.22202 5.27584 9.31643 6.37025 10.6665 6.37025Z" fill="#A7ABB1"/>
<path d="M15.2853 10.4574C14.5644 8.54447 12.7084 7.25914 10.6667 7.25914C9.40709 7.25914 8.22043 7.7507 7.32532 8.5747C8.97332 9.20492 10.3342 10.5027 10.9778 12.2094C11.0773 12.4725 11.1218 12.7454 11.1395 13.0183C12.216 12.9738 13.2809 12.7871 14.3084 12.444C14.7138 12.3089 15.0498 12.0111 15.2338 11.6271C15.4115 11.2538 15.4302 10.8378 15.2862 10.4574H15.2853Z" fill="#A7ABB1"/>
<path d="M9.72973 12.6796C9.00885 10.7667 7.15285 9.48136 5.11107 9.48136C3.06929 9.48136 1.21329 10.7667 0.492402 12.6796C0.348402 13.0609 0.367068 13.476 0.544846 13.8494C0.727957 14.2334 1.06485 14.5311 1.47018 14.6663C2.64796 15.0591 3.87373 15.2591 5.11107 15.2591C6.3484 15.2591 7.57418 15.0591 8.75196 14.6663C9.15729 14.5311 9.49329 14.2334 9.67729 13.8494C9.85507 13.476 9.87373 13.06 9.72973 12.6796Z" fill="#A7ABB1"/>
</svg>
